<svg xmlns="http://www.w3.org/2000/svg" viewBox="0 0 480 320" role="img" aria-labelledby="t2">
  <title id="t2">Kelereng, sepatu bunga, dan timbangan nenek</title>
  <defs>
    <linearGradient id="sky2" x1="0" y1="0" x2="0" y2="1">
      <stop offset="0%" stop-color="#f5f0e6"/>
      <stop offset="100%" stop-color="#e5dece"/>
    </linearGradient>
    <radialGradient id="m1" cx="35%" cy="30%" r="65%">
      <stop offset="0%" stop-color="#d8efe8"/>
      <stop offset="100%" stop-color="#2f5d56"/>
    </radialGradient>
    <radialGradient id="m2" cx="35%" cy="30%" r="65%">
      <stop offset="0%" stop-color="#ffe8c8"/>
      <stop offset="100%" stop-color="#b07a3a"/>
    </radialGradient>
  </defs>
  <rect width="480" height="320" fill="url(#sky2)"/>
  <!-- yard soil -->
  <ellipse cx="210" cy="230" rx="130" ry="52" fill="#cbb99a"/>
  <ellipse cx="210" cy="230" rx="100" ry="38" fill="#b9a483"/>
  <!-- dug hole -->
  <ellipse cx="208" cy="228" rx="52" ry="26" fill="#8f7a5c"/>
  <!-- marbles -->
  <circle cx="190" cy="222" r="14" fill="url(#m1)" stroke="#1c1a17" stroke-width="1.3"/>
  <circle cx="220" cy="234" r="11" fill="#c97878" stroke="#1c1a17" stroke-width="1.3"/>
  <circle cx="238" cy="216" r="9" fill="#e8c56d" stroke="#1c1a17" stroke-width="1.2"/>
  <circle cx="206" cy="246" r="8" fill="#7a9e98" stroke="#1c1a17" stroke-width="1.1"/>
  <circle cx="174" cy="238" r="7" fill="#f3efe6" stroke="#1c1a17" stroke-width="1.1"/>
  <!-- flower-pattern shoe, slightly apart -->
  <g transform="translate(318 214)">
    <ellipse cx="36" cy="28" rx="40" ry="16" fill="#f3efe6" stroke="#1c1a17" stroke-width="1.6"/>
    <path d="M8 28 C18 8 42 4 58 14 C66 18 70 26 64 32" fill="#c97878" stroke="#1c1a17" stroke-width="1.4" opacity="0.85"/>
    <circle cx="28" cy="22" r="3.2" fill="#e8c56d" stroke="#1c1a17" stroke-width="0.9"/>
    <circle cx="40" cy="18" r="2.6" fill="#2f5d56" stroke="#1c1a17" stroke-width="0.9"/>
    <circle cx="50" cy="24" r="2.4" fill="#7a9e98" stroke="#1c1a17" stroke-width="0.9"/>
  </g>
  <!-- kitchen scale / weighing spices -->
  <g transform="translate(72 78)" fill="none" stroke="#1c1a17" stroke-width="1.6" stroke-linecap="round">
    <line x1="48" y1="18" x2="48" y2="58"/>
    <path d="M28 58 h40" stroke-width="2"/>
    <path d="M18 28 h60"/>
    <path d="M18 28 L8 48 h20 z" fill="#ebe4d6" stroke="#1c1a17"/>
    <path d="M78 28 L68 48 h20 z" fill="#ebe4d6" stroke="#1c1a17"/>
    <circle cx="48" cy="18" r="4" fill="#2f5d56" stroke="#1c1a17"/>
  </g>
  <!-- chalk letter practice -->
  <g fill="none" stroke="#7a7366" stroke-width="1.6" stroke-linecap="round" opacity="0.4">
    <path d="M168 78 c0-16 12-26 26-26 s26 10 26 26"/>
    <line x1="194" y1="108" x2="194" y2="118"/>
    <path d="M244 92 h36 M244 106 h28"/>
  </g>
  <!-- small plant -->
  <path d="M400 198 c8-28 28-40 28-40 s4 24-4 44" fill="none" stroke="#2f5d56" stroke-width="2" stroke-linecap="round"/>
  <path d="M412 176 c12-4 22 6 18 16" fill="none" stroke="#2f5d56" stroke-width="1.8" stroke-linecap="round"/>
</svg>
