<svg xmlns="http://www.w3.org/2000/svg" viewBox="0 0 480 320" role="img" aria-labelledby="t2">
  <title id="t2">Kelereng di tanah halaman</title>
  <defs>
    <linearGradient id="sky2" x1="0" y1="0" x2="0" y2="1">
      <stop offset="0%" stop-color="#f5f0e6"/>
      <stop offset="100%" stop-color="#e5dece"/>
    </linearGradient>
    <radialGradient id="m1" cx="35%" cy="30%" r="65%">
      <stop offset="0%" stop-color="#d8efe8"/>
      <stop offset="100%" stop-color="#2f5d56"/>
    </radialGradient>
    <radialGradient id="m2" cx="35%" cy="30%" r="65%">
      <stop offset="0%" stop-color="#ffe8c8"/>
      <stop offset="100%" stop-color="#b07a3a"/>
    </radialGradient>
  </defs>
  <rect width="480" height="320" fill="url(#sky2)"/>
  <!-- yard soil -->
  <ellipse cx="250" cy="230" rx="150" ry="55" fill="#cbb99a"/>
  <ellipse cx="250" cy="230" rx="118" ry="40" fill="#b9a483"/>
  <!-- dug hole -->
  <ellipse cx="248" cy="228" rx="58" ry="28" fill="#8f7a5c"/>
  <!-- marbles -->
  <circle cx="228" cy="222" r="14" fill="url(#m1)" stroke="#1c1a17" stroke-width="1.3"/>
  <circle cx="258" cy="234" r="11" fill="#c97878" stroke="#1c1a17" stroke-width="1.3"/>
  <circle cx="278" cy="216" r="9" fill="#e8c56d" stroke="#1c1a17" stroke-width="1.2"/>
  <circle cx="246" cy="246" r="8" fill="#7a9e98" stroke="#1c1a17" stroke-width="1.1"/>
  <circle cx="212" cy="238" r="7" fill="#f3efe6" stroke="#1c1a17" stroke-width="1.1"/>
  <!-- chalk letter practice -->
  <g fill="none" stroke="#7a7366" stroke-width="1.6" stroke-linecap="round" opacity="0.45">
    <path d="M72 88 c0-16 12-26 26-26 s26 10 26 26"/>
    <line x1="98" y1="118" x2="98" y2="128"/>
    <path d="M148 102 h36 M148 116 h28"/>
    <path d="M210 88 v40 M210 108 h22 c10 0 16-6 16-14 s-6-14-16-14 h-22"/>
  </g>
  <!-- small plant -->
  <path d="M360 210 c8-28 28-40 28-40 s4 24-4 44" fill="none" stroke="#2f5d56" stroke-width="2" stroke-linecap="round"/>
  <path d="M372 188 c12-4 22 6 18 16" fill="none" stroke="#2f5d56" stroke-width="1.8" stroke-linecap="round"/>
</svg>
