<svg xmlns="http://www.w3.org/2000/svg" viewBox="0 0 480 320" role="img" aria-labelledby="t3">
  <title id="t3">Kupu-kupu dan cahaya televisi sore</title>
  <defs>
    <linearGradient id="sky3" x1="0" y1="0" x2="1" y2="1">
      <stop offset="0%" stop-color="#f4efe5"/>
      <stop offset="100%" stop-color="#e4dccb"/>
    </linearGradient>
    <radialGradient id="tvglow" cx="50%" cy="45%" r="55%">
      <stop offset="0%" stop-color="#7a9e98" stop-opacity="0.35"/>
      <stop offset="100%" stop-color="#7a9e98" stop-opacity="0"/>
    </radialGradient>
  </defs>
  <rect width="480" height="320" fill="url(#sky3)"/>
  <ellipse cx="150" cy="180" rx="110" ry="90" fill="url(#tvglow)"/>
  <!-- old TV -->
  <rect x="78" y="128" width="120" height="90" rx="8" fill="#ebe4d6" stroke="#1c1a17" stroke-width="2"/>
  <rect x="92" y="140" width="92" height="58" rx="3" fill="#2f5d56" opacity="0.55"/>
  <rect x="118" y="218" width="40" height="10" fill="#cbb99a" stroke="#1c1a17" stroke-width="1.2"/>
  <line x1="138" y1="228" x2="138" y2="248" stroke="#1c1a17" stroke-width="1.5"/>
  <line x1="118" y1="248" x2="158" y2="248" stroke="#1c1a17" stroke-width="1.5" stroke-linecap="round"/>
  <!-- butterfly as freedom dress -->
  <g transform="translate(292 118)">
    <path d="M0 48 C-48 8 -58 -28 -18 -8 C-8 4 -2 22 0 48 Z" fill="#c97878" stroke="#1c1a17" stroke-width="1.5" opacity="0.9"/>
    <path d="M0 48 C48 8 58 -28 18 -8 C8 4 2 22 0 48 Z" fill="#2f5d56" stroke="#1c1a17" stroke-width="1.5" opacity="0.85"/>
    <path d="M0 48 C-34 70 -28 108 0 92 C10 86 8 62 0 48 Z" fill="#e8c56d" stroke="#1c1a17" stroke-width="1.3" opacity="0.8"/>
    <path d="M0 48 C34 70 28 108 0 92 C-10 86 -8 62 0 48 Z" fill="#7a9e98" stroke="#1c1a17" stroke-width="1.3" opacity="0.8"/>
    <line x1="0" y1="8" x2="0" y2="100" stroke="#1c1a17" stroke-width="1.8" stroke-linecap="round"/>
    <path d="M0 8 c-8 -14 -18 -18 -18 -18 M0 8 c8 -14 18 -18 18 -18" fill="none" stroke="#1c1a17" stroke-width="1.4" stroke-linecap="round"/>
  </g>
  <!-- afternoon clock hint -->
  <circle cx="400" cy="72" r="22" fill="none" stroke="#7a7366" stroke-width="1.6" opacity="0.5"/>
  <line x1="400" y1="72" x2="400" y2="58" stroke="#2f5d56" stroke-width="1.8" stroke-linecap="round" opacity="0.7"/>
  <line x1="400" y1="72" x2="412" y2="72" stroke="#2f5d56" stroke-width="1.6" stroke-linecap="round" opacity="0.7"/>
</svg>
