<svg xmlns="http://www.w3.org/2000/svg" viewBox="0 0 480 320" role="img" aria-labelledby="t4">
  <title id="t4">Panggung kosong dan sepatu balet</title>
  <defs>
    <linearGradient id="sky4" x1="0" y1="0" x2="0" y2="1">
      <stop offset="0%" stop-color="#f3eee4"/>
      <stop offset="55%" stop-color="#e9e1d1"/>
      <stop offset="100%" stop-color="#d9d0be"/>
    </linearGradient>
    <radialGradient id="spot" cx="50%" cy="28%" r="42%">
      <stop offset="0%" stop-color="#fff8ea" stop-opacity="0.95"/>
      <stop offset="55%" stop-color="#f3efe6" stop-opacity="0.35"/>
      <stop offset="100%" stop-color="#f3efe6" stop-opacity="0"/>
    </radialGradient>
  </defs>
  <rect width="480" height="320" fill="url(#sky4)"/>
  <!-- curtains hint -->
  <path d="M0 0 C40 40 40 120 0 180 Z" fill="#2f5d56" opacity="0.18"/>
  <path d="M480 0 C440 40 440 120 480 180 Z" fill="#2f5d56" opacity="0.18"/>
  <!-- spotlight -->
  <ellipse cx="240" cy="120" rx="130" ry="100" fill="url(#spot)"/>
  <!-- stage floor -->
  <path d="M40 250 C160 228 320 228 440 250 L460 300 L20 300 Z" fill="#cbb99a" stroke="#1c1a17" stroke-width="1.5"/>
  <path d="M70 252 C170 238 310 238 410 252" fill="none" stroke="#1c1a17" stroke-width="1" opacity="0.25"/>
  <!-- ballet slipper -->
  <g transform="translate(214 214)">
    <path d="M8 28 C2 18 6 8 22 6 C42 4 58 14 54 28 C52 36 40 40 28 38 C18 36 12 34 8 28 Z" fill="#f3efe6" stroke="#1c1a17" stroke-width="1.6"/>
    <path d="M18 10 C28 22 34 34 34 34" fill="none" stroke="#c97878" stroke-width="1.8" stroke-linecap="round"/>
    <path d="M28 8 C36 20 44 32 44 32" fill="none" stroke="#c97878" stroke-width="1.8" stroke-linecap="round"/>
    <circle cx="48" cy="22" r="2.2" fill="#c97878"/>
  </g>
  <!-- faint silhouette stance -->
  <path d="M240 148 c-10 18 -8 46 0 62 M240 148 c10 18 8 46 0 62 M240 210 v28" fill="none" stroke="#1c1a17" stroke-width="1.5" stroke-linecap="round" opacity="0.28"/>
</svg>
